<svg width="26" height="26" viewBox="0 0 26 26" fill="none" xmlns="http://www.w3.org/2000/svg">
    <g clip-path="url(#clip0_8242_31011)">
        <path d="M25.9771 12.9978C25.9771 20.142 20.1859 25.9331 13.0418 25.9331C5.89785 25.9331 0.106445 20.142 0.106445 12.9978C0.106445 5.85377 5.89785 0.0625 13.0418 0.0625C20.1859 0.0625 25.9771 5.85377 25.9771 12.9978Z" fill="#C10F07"/>
        <path d="M19.1127 6.58594H6.86426V9.54295H11.51V13.8892H14.467V9.54295H19.1127V6.58594Z" fill="white"/>
        <path d="M13.0168 14.3527C9.17375 14.3527 6.05802 13.7445 6.05802 12.9941C6.05802 12.2438 9.17362 11.6355 13.0168 11.6355C16.8599 11.6355 19.9755 12.2438 19.9755 12.9941C19.9755 13.7445 16.8599 14.3527 13.0168 14.3527ZM20.8304 13.2206C20.8304 12.253 17.3322 11.4688 13.0168 11.4688C8.70161 11.4688 5.20312 12.253 5.20312 13.2206C5.20312 14.0726 7.91579 14.7825 11.5104 14.9398V21.179H14.4671V14.9423C18.0894 14.7899 20.8304 14.077 20.8304 13.2206Z" fill="white"/>
    </g>
    <defs>
        <clipPath id="clip0_8242_31011">
            <rect width="26" height="26" fill="white"/>
        </clipPath>
    </defs>
</svg>
